<?xml version="1.0" standalone="no"?>
<!DOCTYPE svg PUBLIC "-//W3C//DTD SVG 20010904//EN"
 "http://www.w3.org/TR/2001/REC-SVG-20010904/DTD/svg10.dtd">
<svg version="1.0" xmlns="http://www.w3.org/2000/svg"
 width="1080.000000pt" height="1080.000000pt" viewBox="0 0 1080.000000 1080.000000"
 preserveAspectRatio="xMidYMid meet">

<g transform="translate(0.000000,1080.000000) scale(0.100000,-0.100000)"
fill="#000000" stroke="none">
<path d="M3487 9294 c-4 -4 -7 -43 -7 -86 l0 -78 -56 0 c-74 0 -70 -24 5 -28
49 -3 53 -5 47 -25 -3 -12 -6 -43 -6 -69 0 -44 -2 -48 -27 -54 -82 -17 -96
-51 -17 -39 l44 6 0 -105 c0 -83 3 -106 14 -106 15 0 26 68 26 162 l0 57 60
12 c47 9 60 15 57 28 -2 9 -7 15 -13 15 -5 -1 -30 -5 -56 -8 l-48 -7 0 67 0
67 90 -5 c64 -4 93 -2 100 7 17 20 0 25 -95 25 l-91 0 1 82 c0 75 -9 101 -28
82z"/>
<path d="M2950 7315 l0 -385 379 0 379 0 -1 385 -1 385 -378 0 -378 0 0 -385z"/>
<path d="M3760 7315 l0 -385 400 0 400 0 0 385 0 385 -400 0 -400 0 0 -385z"/>
<path d="M4610 7315 l0 -385 385 0 385 0 0 385 0 385 -385 0 -385 0 0 -385z"/>
<path d="M5440 7315 l0 -385 375 0 375 0 0 218 c0 121 3 294 7 385 l6 167
-381 0 -382 0 0 -385z"/>
<path d="M6250 7315 l0 -385 400 0 400 0 0 385 0 385 -400 0 -400 0 0 -385z"/>
<path d="M7100 7315 l0 -385 388 0 387 0 2 385 1 385 -389 0 -389 0 0 -385z"/>
<path d="M2950 5975 l0 -235 255 0 255 0 0 235 0 235 -255 0 -255 0 0 -235z"/>
<path d="M4430 5975 l0 -235 255 0 255 0 0 235 0 235 -255 0 -255 0 0 -235z"/>
<path d="M5900 5975 l0 -235 255 0 255 0 0 235 0 235 -255 0 -255 0 0 -235z"/>
<path d="M7380 5975 l0 -235 255 0 255 0 0 235 0 235 -255 0 -255 0 0 -235z"/>
<path d="M2950 5493 l0 -186 107 6 c58 4 173 7 255 7 l148 0 0 180 0 180 -255
0 -255 0 0 -187z"/>
<path d="M4430 5493 l0 -186 98 6 c53 4 168 7 255 7 l157 0 0 180 0 180 -255
0 -255 0 0 -187z"/>
<path d="M5900 5493 l0 -186 107 6 c58 4 173 7 255 7 l148 0 0 180 0 180 -255
0 -255 0 0 -187z"/>
<path d="M7380 5493 l0 -186 98 6 c53 4 168 7 255 7 l157 0 0 180 0 180 -255
0 -255 0 0 -187z"/>
<path d="M2880 3710 l0 -470 810 0 810 0 0 470 0 470 -810 0 -810 0 0 -470z"/>
<path d="M6340 3710 l0 -470 230 0 230 0 0 470 0 470 -230 0 -230 0 0 -470z"/>
<path d="M7440 3710 l0 -470 230 0 230 0 0 470 0 470 -230 0 -230 0 0 -470z"/>
<path d="M5100 3605 l0 -195 145 0 145 0 0 195 0 195 -145 0 -145 0 0 -195z"/>
<path d="M5430 3605 l0 -195 145 0 145 0 0 103 c0 57 3 145 6 195 l7 92 -152
0 -151 0 0 -195z"/>
<path d="M5100 3175 l0 -195 145 0 145 0 0 195 0 195 -145 0 -145 0 0 -195z"/>
<path d="M5430 3175 l0 -195 145 0 145 0 0 103 c0 57 3 145 6 195 l7 92 -152
0 -151 0 0 -195z"/>
<path d="M8570 3076 c0 -151 0 -154 23 -159 12 -4 31 -13 42 -21 19 -13 20
-29 25 -218 l5 -203 559 -3 558 -2 -7 37 c-16 91 -30 118 -90 179 -77 78 -132
98 -243 91 -42 -2 -86 -8 -98 -12 -18 -6 -26 2 -53 50 -87 153 -249 236 -433
221 -73 -6 -78 -5 -89 16 -26 49 -166 178 -193 178 -3 0 -6 -69 -6 -154z"/>
<path d="M1702 3072 c-66 -24 -152 -83 -199 -136 -47 -54 -100 -166 -114 -241
-11 -60 -8 -182 5 -204 5 -8 95 -11 311 -11 302 0 303 0 357 25 29 14 63 25
76 25 22 0 22 0 22 173 0 167 1 174 23 195 12 11 34 24 50 27 26 7 27 10 27
71 0 35 -4 64 -9 64 -10 0 -64 -58 -78 -85 -8 -14 -15 -11 -46 19 -20 19 -63
47 -94 62 -51 25 -72 28 -168 31 -88 3 -121 0 -163 -15z"/>
<path d="M3670 2467 c-34 -11 -118 -85 -137 -121 -9 -17 -14 -17 -43 -7 -79
27 -171 -1 -214 -66 -28 -41 -43 -115 -32 -157 l6 -26 596 0 597 0 -6 35 c-13
78 -81 130 -163 123 -39 -3 -44 0 -66 32 -33 48 -97 82 -161 84 -47 1 -57 6
-93 42 -24 24 -61 48 -89 58 -54 18 -143 20 -195 3z"/>
</g>
</svg>
